<?xml version="1.0" encoding="UTF-8"?>
<!DOCTYPE svg PUBLIC "-//W3C//DTD SVG 1.1//EN" "http://www.w3.org/Graphics/SVG/1.1/DTD/svg11.dtd">
<svg xmlns="http://www.w3.org/2000/svg" xmlns:xlink="http://www.w3.org/1999/xlink" version="1.1" width="621px" height="497px" viewBox="-0.5 -0.5 621 497" content="&lt;mxfile host=&quot;Electron&quot; modified=&quot;2021-01-25T03:44:35.223Z&quot; agent=&quot;5.0 (Macintosh; Intel Mac OS X 11_1_0) AppleWebKit/537.36 (KHTML, like Gecko) draw.io/14.1.8 Chrome/87.0.4280.88 Electron/11.1.1 Safari/537.36&quot; etag=&quot;TNP-B075_UxMiDLSzTLi&quot; version=&quot;14.1.8&quot; type=&quot;device&quot;&gt;&lt;diagram id=&quot;lSSuV840C8oVUQf4M49F&quot; name=&quot;第 1 页&quot;&gt;7Vzblps2FP0aPY4X98sj2CR9mDZZmaw26ZsGNDYdbLkgZ+x+fSUQ5iJ8HTB4FllOgg5CRnufc9gSloA6XW4/x3C9+B0HKAKKFGyBOgOKYmsG/ZcZdpnBVPTMMI/DIDPJheEp/A9xo8StmzBASaUiwTgi4bpq9PFqhXxSscE4xm/Vai84qn7rGs6RYHjyYSRa/woDssislmIW9t9QOF/k3ywbdnZmCfPKvCfJAgb4rWRSPaBOY4xJdrTcTlHEsMtxya77dODs/sZitCJnXfD4ugnR5vPGmYVvT7NE/1daPhicjV8w2vAeA8WIaIPuc0yP5uzoOkuKbNZzssvhpCCs2aG/eab/uW+LkKCnNfSZ7Y06ELUtyDKiJZk1hjerAAWPz3sD9F/nMbN+2ZAoXCFuD2D8+oU2ExLmZtJE0qtGJbXK6X3WUeNA/kIxQduSiaP4GeElIvGOVuFnjdw3uUvrrMDKb4WDyCavsyg5h81tkPvkfN90QRs94MxdwqI2sngxi1KVRdWS+mZRGlm8lEXVUgbGoiyQOIX+QkQ/zvDkoJ0AvwWkZKPm71oDUkoDUkZnSDX5+wEfJfCZmcqYNEGWEBgTLiIkWqaqgEDqmjG/xsdRBNdJmDaW1ViEUfAId3hD8q/JS+34ZxV12TAE1PfNllGX9c5gFz30IOy07ySE0TeqrOBqfg4DIsJBjNffYTxHhBvWOFwRFHu/KKwJt72EUTTFEWZErTDLJS7Ba34yQi/5tc+YELzkhZjDtW80hUp36YeCN5UmOtBpb6a0LBdl+mHVYzLFq4TE1D1YGwgm5A0lB2g/6r6nneEU2WpnXCsC13KrZKeiGxZkv5tHTOF8iVKdvAiDAK0uIOT86CwRopq35EMV+Gg3+O6Uj22VizI9xi3pEXW0OtKzp8dURXpuGT2KGD3aSE+h8GRR0d2UnzxWS/xMJpORoYIhrSHBdcSQh7/9bcv2H9vt64/EIyp++nP2cLcPfwHjs/k5TIal9RsuctPc2yjEuxTiuyql/elyMVOapnmvwXmaIf1shnoLRrPbYLxTOoYizK2RnQHr8g+swi8mo38VPj5HBqS47zZPXaW49YErbntU3P0obqNvxa1c8LJp4JF5mh77bHp6kwwdv4S6UzoGIrdzMkZ2Bim39ZGMAclta2RjOHL7bl/XXSW37WHLbcUY1fVN1LXdu7r+uHMOuRMPWUx/3EfQBegPRTvbIxmDkcp5wyMZg5DKY2gMSCrf7Uuba6Ryxs9wpbLa7i9zRql8SCrvlzj0ppXVjzuXlnvxgLWyerczBG2iPxCtrN7tM6gDMnrXyh93WvlyMnrXytrHHblcwUbfWvluQ+MarawO/HfT2gXvjv1NHO3cGPqvTPqeWmZbXZMbYwJJiCmYM1tqdu9LHVkzqADm8OW/jJAntiJK0oaFuLIlTyS7K1AVAVRxSHLrNctavn5xl5fFrKxpN3Q9XcQEBXP0xIt0QLPAc7yCkVdYS16Vxuq+ziNOg5xh9Q8iZMfXLcMNwVUk0TYkP0rHP1lTE52XZlveclrY5YUV7e+PcqF0FSsWl6Wl/LqDrCV4E/vomAdx/ULycebBijybMuSOekGMIhqAv6ru2L7ni6vKmlYt3dz3LWtYvq+JiyO1htHUrXEy8oXy+W4sDVrhtjlCfBrdMEcUeeFn6cypHFGkhZ+VrPCOHNGoo8xzU4TWdorgl35lU1SF8+iWUXOemldkd8qvqjnG/jbeEVPiEjDVEgfFfcdU77lHF3OPn+2qIqU7zyjSA/3LtkGS3B1BiYAg7TipwgSjcM6knY/YRCg1MHhCH0YOP7GkSjqLTZSE/5XkenWak81ksnBMsshsK/tLel0oyrK4dYisNuhEpTMWxFVrR1NdguZLCkE5z6FV4LBd2RjwEUyS0D+Uxi4SO7TwFcUh7Wa61Uvnye3ouORkdpPPTG4lovUGnnPbO3OgUtsYSLZq/pN1XMiBQkNqbV80uZ4OOk6mesMSPk8HlgMcCXgWcGfswywGsHR24MyAbaUWelbyG/dpYiw9wmcUdZc+GlzuaPiJY/rqnAIobzDYlF0epIm0H8a/030eFGNSe4oq5qQ2TMUvLwnqhHRjHJGdHNOfllvqbeSWplcdRct/ynxpqhEGR/WG2ks1x3Rs+0PGU/N1R8PazLcX6kG2NcIk/i5toLHZ6P5XBt2BNXDvHaloNW7VK0PHlKuy8tahIy7B+860+WnBXn+O1kT3+Q9k8QHcMAGfkBi/opqx6pstRKxqVyWT2rBOTutI4jdvENOwTM6jcmkKLJtpKEdmx54NLHqQiSmP6SnvE3Cn6SkD2DoVU+lVM+B4rI49BY7VpLxoO2Z6FdVfn4BNK5vAddnZokF+uQw8Dbj0DpzKyI9eYDuAahn2xVPgOszC7slkrTsu+5pztkwtOpmqQdtsr5PpbbN2OumkxkQtPT6rkzawVeB6nEnHOtpJsSfptzOMsi5J6SmP3VtD3wxWwTHb6qQLLDc9cJixcMXsVrwSb9Rip5VtVnTF6ZTDkwHZy7bWpwLelSPoeGwilf9UHwRNu0/v00o5Z9SHdWfkDFos9ifPHgDFJu+q9z8=&lt;/diagram&gt;&lt;/mxfile&gt;" style="background-color: rgb(255, 255, 255);"><defs/><g><path d="M 450 406 L 600 406 L 620 426 L 620 496 L 470 496 L 450 476 L 450 406 Z" fill="#ffffff" stroke="#000000" stroke-miterlimit="10" pointer-events="all"/><path d="M 450 406 L 600 406 L 620 426 L 470 426 Z" fill-opacity="0.05" fill="#000000" stroke="none" pointer-events="all"/><path d="M 450 406 L 470 426 L 470 496 L 450 476 Z" fill-opacity="0.1" fill="#000000" stroke="none" pointer-events="all"/><path d="M 470 496 L 470 426 L 450 406 M 470 426 L 620 426" fill="none" stroke="#000000" stroke-miterlimit="10" pointer-events="all"/><g transform="translate(-0.5 -0.5)"><switch><foreignObject style="overflow: visible; text-align: left;" pointer-events="none" width="100%" height="100%" requiredFeatures="http://www.w3.org/TR/SVG11/feature#Extensibility"><div xmlns="http://www.w3.org/1999/xhtml" style="display: flex; align-items: unsafe center; justify-content: unsafe center; width: 148px; height: 1px; padding-top: 461px; margin-left: 471px;"><div style="box-sizing: border-box; font-size: 0; text-align: center; "><div style="display: inline-block; font-size: 12px; font-family: Helvetica; color: #000000; line-height: 1.2; pointer-events: all; white-space: normal; word-wrap: normal; "><br /><br /><br /><br />page</div></div></div></foreignObject><text x="545" y="465" fill="#000000" font-family="Helvetica" font-size="12px" text-anchor="middle">page...</text></switch></g><path d="M 440 264 L 590 264 L 610 284 L 610 354 L 460 354 L 440 334 L 440 264 Z" fill="#ffffff" stroke="#000000" stroke-miterlimit="10" pointer-events="all"/><path d="M 440 264 L 590 264 L 610 284 L 460 284 Z" fill-opacity="0.05" fill="#000000" stroke="none" pointer-events="all"/><path d="M 440 264 L 460 284 L 460 354 L 440 334 Z" fill-opacity="0.1" fill="#000000" stroke="none" pointer-events="all"/><path d="M 460 354 L 460 284 L 440 264 M 460 284 L 610 284" fill="none" stroke="#000000" stroke-miterlimit="10" pointer-events="all"/><g transform="translate(-0.5 -0.5)"><switch><foreignObject style="overflow: visible; text-align: left;" pointer-events="none" width="100%" height="100%" requiredFeatures="http://www.w3.org/TR/SVG11/feature#Extensibility"><div xmlns="http://www.w3.org/1999/xhtml" style="display: flex; align-items: unsafe center; justify-content: unsafe center; width: 148px; height: 1px; padding-top: 319px; margin-left: 461px;"><div style="box-sizing: border-box; font-size: 0; text-align: center; "><div style="display: inline-block; font-size: 12px; font-family: Helvetica; color: #000000; line-height: 1.2; pointer-events: all; white-space: normal; word-wrap: normal; "><br /><br /><br /><br />page</div></div></div></foreignObject><text x="535" y="323" fill="#000000" font-family="Helvetica" font-size="12px" text-anchor="middle">page...</text></switch></g><path d="M 222 264 L 372 264 L 392 284 L 392 354 L 242 354 L 222 334 L 222 264 Z" fill="#ffffff" stroke="#000000" stroke-miterlimit="10" pointer-events="all"/><path d="M 222 264 L 372 264 L 392 284 L 242 284 Z" fill-opacity="0.05" fill="#000000" stroke="none" pointer-events="all"/><path d="M 222 264 L 242 284 L 242 354 L 222 334 Z" fill-opacity="0.1" fill="#000000" stroke="none" pointer-events="all"/><path d="M 242 354 L 242 284 L 222 264 M 242 284 L 392 284" fill="none" stroke="#000000" stroke-miterlimit="10" pointer-events="all"/><g transform="translate(-0.5 -0.5)"><switch><foreignObject style="overflow: visible; text-align: left;" pointer-events="none" width="100%" height="100%" requiredFeatures="http://www.w3.org/TR/SVG11/feature#Extensibility"><div xmlns="http://www.w3.org/1999/xhtml" style="display: flex; align-items: unsafe center; justify-content: unsafe center; width: 148px; height: 1px; padding-top: 319px; margin-left: 243px;"><div style="box-sizing: border-box; font-size: 0; text-align: center; "><div style="display: inline-block; font-size: 12px; font-family: Helvetica; color: #000000; line-height: 1.2; pointer-events: all; white-space: normal; word-wrap: normal; "><br /><br /><br /><br />page</div></div></div></foreignObject><text x="317" y="323" fill="#000000" font-family="Helvetica" font-size="12px" text-anchor="middle">page...</text></switch></g><rect x="0" y="224" width="120" height="60" rx="9" ry="9" fill="#ffffff" stroke="#000000" pointer-events="all"/><g transform="translate(-0.5 -0.5)"><switch><foreignObject style="overflow: visible; text-align: left;" pointer-events="none" width="100%" height="100%" requiredFeatures="http://www.w3.org/TR/SVG11/feature#Extensibility"><div xmlns="http://www.w3.org/1999/xhtml" style="display: flex; align-items: unsafe center; justify-content: unsafe center; width: 118px; height: 1px; padding-top: 254px; margin-left: 1px;"><div style="box-sizing: border-box; font-size: 0; text-align: center; "><div style="display: inline-block; font-size: 12px; font-family: Helvetica; color: #000000; line-height: 1.2; pointer-events: all; white-space: normal; word-wrap: normal; ">Cache</div></div></div></foreignObject><text x="60" y="258" fill="#000000" font-family="Helvetica" font-size="12px" text-anchor="middle">Cache</text></switch></g><rect x="220" y="50" width="221" height="150" fill="#ffffff" stroke="#000000" pointer-events="all"/><path d="M 220 80 L 441 80" fill="none" stroke="#000000" stroke-miterlimit="10" pointer-events="all"/><path d="M 220 110 L 441 110" fill="none" stroke="#000000" stroke-miterlimit="10" pointer-events="all"/><path d="M 220 140 L 441 140" fill="none" stroke="#000000" stroke-miterlimit="10" pointer-events="all"/><path d="M 220 170 L 441 170" fill="none" stroke="#000000" stroke-miterlimit="10" pointer-events="all"/><path d="M 257 50 L 257 200" fill="none" stroke="#000000" stroke-miterlimit="10" pointer-events="all"/><path d="M 293 50 L 293 200" fill="none" stroke="#000000" stroke-miterlimit="10" pointer-events="all"/><path d="M 330 50 L 330 200" fill="none" stroke="#000000" stroke-miterlimit="10" pointer-events="all"/><path d="M 367 50 L 367 200" fill="none" stroke="#000000" stroke-miterlimit="10" pointer-events="all"/><path d="M 404 50 L 404 200" fill="none" stroke="#000000" stroke-miterlimit="10" pointer-events="all"/><path d="M 220 50 M 441 50 M 441 80 M 220 80" fill="none" stroke="#000000" stroke-miterlimit="10" pointer-events="all"/><rect x="220" y="50" width="37" height="30" fill="none" stroke="none" pointer-events="all"/><path d="M 220 50 M 257 50 M 257 80 M 220 80" fill="none" stroke="#000000" stroke-miterlimit="10" pointer-events="all"/><g transform="translate(-0.5 -0.5)"><switch><foreignObject style="overflow: visible; text-align: left;" pointer-events="none" width="100%" height="100%" requiredFeatures="http://www.w3.org/TR/SVG11/feature#Extensibility"><div xmlns="http://www.w3.org/1999/xhtml" style="display: flex; align-items: unsafe center; justify-content: unsafe center; width: 35px; height: 1px; padding-top: 65px; margin-left: 221px;"><div style="box-sizing: border-box; font-size: 0; text-align: center; max-height: 26px; overflow: hidden; "><div style="display: inline-block; font-size: 12px; font-family: Helvetica; color: #000000; line-height: 1.2; pointer-events: all; white-space: normal; word-wrap: normal; ">1</div></div></div></foreignObject><text x="239" y="69" fill="#000000" font-family="Helvetica" font-size="12px" text-anchor="middle">1</text></switch></g><rect x="257" y="50" width="36" height="30" fill="none" stroke="none" pointer-events="all"/><path d="M 257 50 M 293 50 M 293 80 M 257 80" fill="none" stroke="#000000" stroke-miterlimit="10" pointer-events="all"/><g transform="translate(-0.5 -0.5)"><switch><foreignObject style="overflow: visible; text-align: left;" pointer-events="none" width="100%" height="100%" requiredFeatures="http://www.w3.org/TR/SVG11/feature#Extensibility"><div xmlns="http://www.w3.org/1999/xhtml" style="display: flex; align-items: unsafe center; justify-content: unsafe center; width: 34px; height: 1px; padding-top: 65px; margin-left: 258px;"><div style="box-sizing: border-box; font-size: 0; text-align: center; max-height: 26px; overflow: hidden; "><div style="display: inline-block; font-size: 12px; font-family: Helvetica; color: #000000; line-height: 1.2; pointer-events: all; white-space: normal; word-wrap: normal; ">2</div></div></div></foreignObject><text x="275" y="69" fill="#000000" font-family="Helvetica" font-size="12px" text-anchor="middle">2</text></switch></g><rect x="293" y="50" width="37" height="30" fill="none" stroke="none" pointer-events="all"/><path d="M 293 50 M 330 50 M 330 80 M 293 80" fill="none" stroke="#000000" stroke-miterlimit="10" pointer-events="all"/><g transform="translate(-0.5 -0.5)"><switch><foreignObject style="overflow: visible; text-align: left;" pointer-events="none" width="100%" height="100%" requiredFeatures="http://www.w3.org/TR/SVG11/feature#Extensibility"><div xmlns="http://www.w3.org/1999/xhtml" style="display: flex; align-items: unsafe center; justify-content: unsafe center; width: 35px; height: 1px; padding-top: 65px; margin-left: 294px;"><div style="box-sizing: border-box; font-size: 0; text-align: center; max-height: 26px; overflow: hidden; "><div style="display: inline-block; font-size: 12px; font-family: Helvetica; color: #000000; line-height: 1.2; pointer-events: all; white-space: normal; word-wrap: normal; ">3</div></div></div></foreignObject><text x="312" y="69" fill="#000000" font-family="Helvetica" font-size="12px" text-anchor="middle">3</text></switch></g><rect x="330" y="50" width="37" height="30" fill="none" stroke="none" pointer-events="all"/><path d="M 330 50 M 367 50 M 367 80 M 330 80" fill="none" stroke="#000000" stroke-miterlimit="10" pointer-events="all"/><g transform="translate(-0.5 -0.5)"><switch><foreignObject style="overflow: visible; text-align: left;" pointer-events="none" width="100%" height="100%" requiredFeatures="http://www.w3.org/TR/SVG11/feature#Extensibility"><div xmlns="http://www.w3.org/1999/xhtml" style="display: flex; align-items: unsafe center; justify-content: unsafe center; width: 35px; height: 1px; padding-top: 65px; margin-left: 331px;"><div style="box-sizing: border-box; font-size: 0; text-align: center; max-height: 26px; overflow: hidden; "><div style="display: inline-block; font-size: 12px; font-family: Helvetica; color: #000000; line-height: 1.2; pointer-events: all; white-space: normal; word-wrap: normal; ">4</div></div></div></foreignObject><text x="349" y="69" fill="#000000" font-family="Helvetica" font-size="12px" text-anchor="middle">4</text></switch></g><rect x="367" y="50" width="37" height="30" fill="none" stroke="none" pointer-events="all"/><path d="M 367 50 M 404 50 M 404 80 M 367 80" fill="none" stroke="#000000" stroke-miterlimit="10" pointer-events="all"/><g transform="translate(-0.5 -0.5)"><switch><foreignObject style="overflow: visible; text-align: left;" pointer-events="none" width="100%" height="100%" requiredFeatures="http://www.w3.org/TR/SVG11/feature#Extensibility"><div xmlns="http://www.w3.org/1999/xhtml" style="display: flex; align-items: unsafe center; justify-content: unsafe center; width: 35px; height: 1px; padding-top: 65px; margin-left: 368px;"><div style="box-sizing: border-box; font-size: 0; text-align: center; max-height: 26px; overflow: hidden; "><div style="display: inline-block; font-size: 12px; font-family: Helvetica; color: #000000; line-height: 1.2; pointer-events: all; white-space: normal; word-wrap: normal; ">...</div></div></div></foreignObject><text x="386" y="69" fill="#000000" font-family="Helvetica" font-size="12px" text-anchor="middle">...</text></switch></g><rect x="404" y="50" width="37" height="30" fill="none" stroke="none" pointer-events="all"/><path d="M 404 50 M 441 50 M 441 80 M 404 80" fill="none" stroke="#000000" stroke-miterlimit="10" pointer-events="all"/><path d="M 220 80 M 441 80 M 441 110 M 220 110" fill="none" stroke="#000000" stroke-miterlimit="10" pointer-events="all"/><rect x="220" y="80" width="37" height="30" fill="none" stroke="none" pointer-events="all"/><path d="M 220 80 M 257 80 M 257 110 M 220 110" fill="none" stroke="#000000" stroke-miterlimit="10" pointer-events="all"/><g transform="translate(-0.5 -0.5)"><switch><foreignObject style="overflow: visible; text-align: left;" pointer-events="none" width="100%" height="100%" requiredFeatures="http://www.w3.org/TR/SVG11/feature#Extensibility"><div xmlns="http://www.w3.org/1999/xhtml" style="display: flex; align-items: unsafe center; justify-content: unsafe center; width: 35px; height: 1px; padding-top: 95px; margin-left: 221px;"><div style="box-sizing: border-box; font-size: 0; text-align: center; max-height: 26px; overflow: hidden; "><div style="display: inline-block; font-size: 12px; font-family: Helvetica; color: #000000; line-height: 1.2; pointer-events: all; white-space: normal; word-wrap: normal; ">777</div></div></div></foreignObject><text x="239" y="99" fill="#000000" font-family="Helvetica" font-size="12px" text-anchor="middle">777</text></switch></g><rect x="257" y="80" width="36" height="30" fill="none" stroke="none" pointer-events="all"/><path d="M 257 80 M 293 80 M 293 110 M 257 110" fill="none" stroke="#000000" stroke-miterlimit="10" pointer-events="all"/><rect x="293" y="80" width="37" height="30" fill="none" stroke="none" pointer-events="all"/><path d="M 293 80 M 330 80 M 330 110 M 293 110" fill="none" stroke="#000000" stroke-miterlimit="10" pointer-events="all"/><rect x="330" y="80" width="37" height="30" fill="none" stroke="none" pointer-events="all"/><path d="M 330 80 M 367 80 M 367 110 M 330 110" fill="none" stroke="#000000" stroke-miterlimit="10" pointer-events="all"/><rect x="367" y="80" width="37" height="30" fill="none" stroke="none" pointer-events="all"/><path d="M 367 80 M 404 80 M 404 110 M 367 110" fill="none" stroke="#000000" stroke-miterlimit="10" pointer-events="all"/><rect x="404" y="80" width="37" height="30" fill="none" stroke="none" pointer-events="all"/><path d="M 404 80 M 441 80 M 441 110 M 404 110" fill="none" stroke="#000000" stroke-miterlimit="10" pointer-events="all"/><path d="M 220 110 M 441 110 M 441 140 M 220 140" fill="none" stroke="#000000" stroke-miterlimit="10" pointer-events="all"/><rect x="220" y="110" width="37" height="30" fill="none" stroke="none" pointer-events="all"/><path d="M 220 110 M 257 110 M 257 140 M 220 140" fill="none" stroke="#000000" stroke-miterlimit="10" pointer-events="all"/><rect x="257" y="110" width="36" height="30" fill="none" stroke="none" pointer-events="all"/><path d="M 257 110 M 293 110 M 293 140 M 257 140" fill="none" stroke="#000000" stroke-miterlimit="10" pointer-events="all"/><rect x="293" y="110" width="37" height="30" fill="none" stroke="none" pointer-events="all"/><path d="M 293 110 M 330 110 M 330 140 M 293 140" fill="none" stroke="#000000" stroke-miterlimit="10" pointer-events="all"/><rect x="330" y="110" width="37" height="30" fill="none" stroke="none" pointer-events="all"/><path d="M 330 110 M 367 110 M 367 140 M 330 140" fill="none" stroke="#000000" stroke-miterlimit="10" pointer-events="all"/><rect x="367" y="110" width="37" height="30" fill="none" stroke="none" pointer-events="all"/><path d="M 367 110 M 404 110 M 404 140 M 367 140" fill="none" stroke="#000000" stroke-miterlimit="10" pointer-events="all"/><rect x="404" y="110" width="37" height="30" fill="none" stroke="none" pointer-events="all"/><path d="M 404 110 M 441 110 M 441 140 M 404 140" fill="none" stroke="#000000" stroke-miterlimit="10" pointer-events="all"/><path d="M 220 140 M 441 140 M 441 170 M 220 170" fill="none" stroke="#000000" stroke-miterlimit="10" pointer-events="all"/><rect x="220" y="140" width="37" height="30" fill="none" stroke="none" pointer-events="all"/><path d="M 220 140 M 257 140 M 257 170 M 220 170" fill="none" stroke="#000000" stroke-miterlimit="10" pointer-events="all"/><rect x="257" y="140" width="36" height="30" fill="none" stroke="none" pointer-events="all"/><path d="M 257 140 M 293 140 M 293 170 M 257 170" fill="none" stroke="#000000" stroke-miterlimit="10" pointer-events="all"/><rect x="293" y="140" width="37" height="30" fill="none" stroke="none" pointer-events="all"/><path d="M 293 140 M 330 140 M 330 170 M 293 170" fill="none" stroke="#000000" stroke-miterlimit="10" pointer-events="all"/><rect x="330" y="140" width="37" height="30" fill="none" stroke="none" pointer-events="all"/><path d="M 330 140 M 367 140 M 367 170 M 330 170" fill="none" stroke="#000000" stroke-miterlimit="10" pointer-events="all"/><rect x="367" y="140" width="37" height="30" fill="none" stroke="none" pointer-events="all"/><path d="M 367 140 M 404 140 M 404 170 M 367 170" fill="none" stroke="#000000" stroke-miterlimit="10" pointer-events="all"/><rect x="404" y="140" width="37" height="30" fill="none" stroke="none" pointer-events="all"/><path d="M 404 140 M 441 140 M 441 170 M 404 170" fill="none" stroke="#000000" stroke-miterlimit="10" pointer-events="all"/><path d="M 220 170 M 441 170 M 441 200 M 220 200" fill="none" stroke="#000000" stroke-miterlimit="10" pointer-events="all"/><rect x="220" y="170" width="37" height="30" fill="none" stroke="none" pointer-events="all"/><path d="M 220 170 M 257 170 M 257 200 M 220 200" fill="none" stroke="#000000" stroke-miterlimit="10" pointer-events="all"/><rect x="257" y="170" width="36" height="30" fill="none" stroke="none" pointer-events="all"/><path d="M 257 170 M 293 170 M 293 200 M 257 200" fill="none" stroke="#000000" stroke-miterlimit="10" pointer-events="all"/><rect x="293" y="170" width="37" height="30" fill="none" stroke="none" pointer-events="all"/><path d="M 293 170 M 330 170 M 330 200 M 293 200" fill="none" stroke="#000000" stroke-miterlimit="10" pointer-events="all"/><rect x="330" y="170" width="37" height="30" fill="none" stroke="none" pointer-events="all"/><path d="M 330 170 M 367 170 M 367 200 M 330 200" fill="none" stroke="#000000" stroke-miterlimit="10" pointer-events="all"/><rect x="367" y="170" width="37" height="30" fill="none" stroke="none" pointer-events="all"/><path d="M 367 170 M 404 170 M 404 200 M 367 200" fill="none" stroke="#000000" stroke-miterlimit="10" pointer-events="all"/><rect x="404" y="170" width="37" height="30" fill="none" stroke="none" pointer-events="all"/><path d="M 404 170 M 441 170 M 441 200 M 404 200" fill="none" stroke="#000000" stroke-miterlimit="10" pointer-events="all"/><path d="M 320.54 -54.08 L 315.54 -54.08 Q 310.54 -54.08 310.54 -44.08 L 310.54 26.46 Q 310.54 36.46 305.54 36.46 L 303.04 36.46 Q 300.54 36.46 305.54 36.46 L 308.04 36.46 Q 310.54 36.46 310.54 46.46 L 310.54 117.01 Q 310.54 127.01 315.54 127.01 L 320.54 127.01" fill="none" stroke="#000000" stroke-miterlimit="10" transform="rotate(90,310.54,36.46)" pointer-events="all"/><rect x="252" y="294" width="44" height="30" rx="4.5" ry="4.5" fill="#ffffff" stroke="#000000" pointer-events="all"/><g transform="translate(-0.5 -0.5)"><switch><foreignObject style="overflow: visible; text-align: left;" pointer-events="none" width="100%" height="100%" requiredFeatures="http://www.w3.org/TR/SVG11/feature#Extensibility"><div xmlns="http://www.w3.org/1999/xhtml" style="display: flex; align-items: unsafe center; justify-content: unsafe center; width: 42px; height: 1px; padding-top: 309px; margin-left: 253px;"><div style="box-sizing: border-box; font-size: 0; text-align: center; "><div style="display: inline-block; font-size: 12px; font-family: Helvetica; color: #000000; line-height: 1.2; pointer-events: all; white-space: normal; word-wrap: normal; ">1</div></div></div></foreignObject><text x="274" y="313" fill="#000000" font-family="Helvetica" font-size="12px" text-anchor="middle">1</text></switch></g><path d="M 372 309 L 483.63 309" fill="none" stroke="#000000" stroke-miterlimit="10" pointer-events="stroke"/><path d="M 488.88 309 L 481.88 312.5 L 483.63 309 L 481.88 305.5 Z" fill="#000000" stroke="#000000" stroke-miterlimit="10" pointer-events="all"/><rect x="328" y="294" width="44" height="30" rx="4.5" ry="4.5" fill="#ffffff" stroke="#000000" pointer-events="all"/><g transform="translate(-0.5 -0.5)"><switch><foreignObject style="overflow: visible; text-align: left;" pointer-events="none" width="100%" height="100%" requiredFeatures="http://www.w3.org/TR/SVG11/feature#Extensibility"><div xmlns="http://www.w3.org/1999/xhtml" style="display: flex; align-items: unsafe center; justify-content: unsafe center; width: 42px; height: 1px; padding-top: 309px; margin-left: 329px;"><div style="box-sizing: border-box; font-size: 0; text-align: center; "><div style="display: inline-block; font-size: 12px; font-family: Helvetica; color: #000000; line-height: 1.2; pointer-events: all; white-space: normal; word-wrap: normal; ">...</div></div></div></foreignObject><text x="350" y="313" fill="#000000" font-family="Helvetica" font-size="12px" text-anchor="middle">...</text></switch></g><rect x="490" y="431" width="44" height="30" rx="4.5" ry="4.5" fill="#ffffff" stroke="#000000" pointer-events="all"/><g transform="translate(-0.5 -0.5)"><switch><foreignObject style="overflow: visible; text-align: left;" pointer-events="none" width="100%" height="100%" requiredFeatures="http://www.w3.org/TR/SVG11/feature#Extensibility"><div xmlns="http://www.w3.org/1999/xhtml" style="display: flex; align-items: unsafe center; justify-content: unsafe center; width: 42px; height: 1px; padding-top: 446px; margin-left: 491px;"><div style="box-sizing: border-box; font-size: 0; text-align: center; "><div style="display: inline-block; font-size: 12px; font-family: Helvetica; color: #000000; line-height: 1.2; pointer-events: all; white-space: normal; word-wrap: normal; ">433</div></div></div></foreignObject><text x="512" y="450" fill="#000000" font-family="Helvetica" font-size="12px" text-anchor="middle">433</text></switch></g><path d="M 575 324 L 575 377.5 L 512 377.5 L 512 424.63" fill="none" stroke="#000000" stroke-miterlimit="10" pointer-events="stroke"/><path d="M 512 429.88 L 508.5 422.88 L 512 424.63 L 515.5 422.88 Z" fill="#000000" stroke="#000000" stroke-miterlimit="10" pointer-events="all"/><rect x="490" y="294" width="44" height="30" rx="4.5" ry="4.5" fill="#ffffff" stroke="#000000" pointer-events="all"/><g transform="translate(-0.5 -0.5)"><switch><foreignObject style="overflow: visible; text-align: left;" pointer-events="none" width="100%" height="100%" requiredFeatures="http://www.w3.org/TR/SVG11/feature#Extensibility"><div xmlns="http://www.w3.org/1999/xhtml" style="display: flex; align-items: unsafe center; justify-content: unsafe center; width: 42px; height: 1px; padding-top: 309px; margin-left: 491px;"><div style="box-sizing: border-box; font-size: 0; text-align: center; "><div style="display: inline-block; font-size: 12px; font-family: Helvetica; color: #000000; line-height: 1.2; pointer-events: all; white-space: normal; word-wrap: normal; ">384</div></div></div></foreignObject><text x="512" y="313" fill="#000000" font-family="Helvetica" font-size="12px" text-anchor="middle">384</text></switch></g><rect x="245.54" y="0" width="130" height="20" fill="none" stroke="none" pointer-events="all"/><g transform="translate(-0.5 -0.5)"><switch><foreignObject style="overflow: visible; text-align: left;" pointer-events="none" width="100%" height="100%" requiredFeatures="http://www.w3.org/TR/SVG11/feature#Extensibility"><div xmlns="http://www.w3.org/1999/xhtml" style="display: flex; align-items: unsafe center; justify-content: unsafe center; width: 1px; height: 1px; padding-top: 10px; margin-left: 311px;"><div style="box-sizing: border-box; font-size: 0; text-align: center; "><div style="display: inline-block; font-size: 12px; font-family: Helvetica; color: #000000; line-height: 1.2; pointer-events: all; white-space: nowrap; ">cache line - 64 Bytes</div></div></div></foreignObject><text x="311" y="14" fill="#000000" font-family="Helvetica" font-size="12px" text-anchor="middle">cache line - 64 Bytes</text></switch></g><path d="M 310.54 28.46 L 70 28.5 Q 60 28.5 60 38.5 L 60 217.63" fill="none" stroke="#000000" stroke-miterlimit="10" pointer-events="stroke"/><path d="M 60 222.88 L 56.5 215.88 L 60 217.63 L 63.5 215.88 Z" fill="#000000" stroke="#000000" stroke-miterlimit="10" pointer-events="all"/><g transform="translate(-0.5 -0.5)"><switch><foreignObject style="overflow: visible; text-align: left;" pointer-events="none" width="100%" height="100%" requiredFeatures="http://www.w3.org/TR/SVG11/feature#Extensibility"><div xmlns="http://www.w3.org/1999/xhtml" style="display: flex; align-items: unsafe center; justify-content: unsafe center; width: 1px; height: 1px; padding-top: 57px; margin-left: 65px;"><div style="box-sizing: border-box; font-size: 0; text-align: center; "><div style="display: inline-block; font-size: 11px; font-family: Helvetica; color: #000000; line-height: 1.2; pointer-events: all; background-color: #ffffff; white-space: nowrap; ">加载内存到cache</div></div></div></foreignObject><text x="65" y="60" fill="#000000" font-family="Helvetica" font-size="11px" text-anchor="middle">加载内存到cache</text></switch></g><path d="M 296 309 L 321.63 309" fill="none" stroke="#000000" stroke-miterlimit="10" pointer-events="stroke"/><path d="M 326.88 309 L 319.88 312.5 L 321.63 309 L 319.88 305.5 Z" fill="#000000" stroke="#000000" stroke-miterlimit="10" pointer-events="all"/><rect x="553" y="294" width="44" height="30" rx="4.5" ry="4.5" fill="#ffffff" stroke="#000000" pointer-events="all"/><g transform="translate(-0.5 -0.5)"><switch><foreignObject style="overflow: visible; text-align: left;" pointer-events="none" width="100%" height="100%" requiredFeatures="http://www.w3.org/TR/SVG11/feature#Extensibility"><div xmlns="http://www.w3.org/1999/xhtml" style="display: flex; align-items: unsafe center; justify-content: unsafe center; width: 42px; height: 1px; padding-top: 309px; margin-left: 554px;"><div style="box-sizing: border-box; font-size: 0; text-align: center; "><div style="display: inline-block; font-size: 12px; font-family: Helvetica; color: #000000; line-height: 1.2; pointer-events: all; white-space: normal; word-wrap: normal; ">...</div></div></div></foreignObject><text x="575" y="313" fill="#000000" font-family="Helvetica" font-size="12px" text-anchor="middle">...</text></switch></g><path d="M 534 309 L 547.63 309" fill="none" stroke="#000000" stroke-miterlimit="10" pointer-events="stroke"/><path d="M 552.88 309 L 545.88 312.5 L 547.63 309 L 545.88 305.5 Z" fill="#000000" stroke="#000000" stroke-miterlimit="10" pointer-events="all"/><rect x="230" y="244" width="40" height="20" fill="none" stroke="none" pointer-events="all"/><g transform="translate(-0.5 -0.5)"><switch><foreignObject style="overflow: visible; text-align: left;" pointer-events="none" width="100%" height="100%" requiredFeatures="http://www.w3.org/TR/SVG11/feature#Extensibility"><div xmlns="http://www.w3.org/1999/xhtml" style="display: flex; align-items: unsafe center; justify-content: unsafe center; width: 1px; height: 1px; padding-top: 254px; margin-left: 250px;"><div style="box-sizing: border-box; font-size: 0; text-align: center; "><div style="display: inline-block; font-size: 12px; font-family: Helvetica; color: #000000; line-height: 1.2; pointer-events: all; white-space: nowrap; ">Text</div></div></div></foreignObject><text x="250" y="258" fill="#000000" font-family="Helvetica" font-size="12px" text-anchor="middle">Text</text></switch></g><rect x="20" y="406" width="390" height="80" fill="none" stroke="none" pointer-events="all"/><g transform="translate(-0.5 -0.5)"><switch><foreignObject style="overflow: visible; text-align: left;" pointer-events="none" width="100%" height="100%" requiredFeatures="http://www.w3.org/TR/SVG11/feature#Extensibility"><div xmlns="http://www.w3.org/1999/xhtml" style="display: flex; align-items: unsafe center; justify-content: unsafe flex-start; width: 1px; height: 1px; padding-top: 446px; margin-left: 22px;"><div style="box-sizing: border-box; font-size: 0; text-align: left; "><div style="display: inline-block; font-size: 12px; font-family: Helvetica; color: #000000; line-height: 1.2; pointer-events: all; white-space: nowrap; ">按行遍历，数据在内存里连续，在1个cache line的机率高<br /><br />按列遍历，数据在内存不连续，在1个cache line的机率低<br /><br />链表遍历，内存有一定连续性，在1个cache line的机率介于行与列之间</div></div></div></foreignObject><text x="22" y="450" fill="#000000" font-family="Helvetica" font-size="12px">按行遍历，数据在内存里连续，在1个cache line的机率高...</text></switch></g></g><switch><g requiredFeatures="http://www.w3.org/TR/SVG11/feature#Extensibility"/><a transform="translate(0,-5)" xlink:href="https://www.diagrams.net/doc/faq/svg-export-text-problems" target="_blank"><text text-anchor="middle" font-size="10px" x="50%" y="100%">Viewer does not support full SVG 1.1</text></a></switch></svg>