<?xml version="1.0" encoding="UTF-8" standalone="no"?>
<svg xmlns="http://www.w3.org/2000/svg" xmlns:dc="http://purl.org/dc/elements/1.1/" xmlns:cc="http://creativecommons.org/ns#" xmlns:rdf="http://www.w3.org/1999/02/22-rdf-syntax-ns#" xmlns:svg="http://www.w3.org/2000/svg" xmlns:sodipodi="http://sodipodi.sourceforge.net/DTD/sodipodi-0.dtd" xmlns:inkscape="http://www.inkscape.org/namespaces/inkscape" height="675" width="402" sodipodi:version="0.32" inkscape:version="1.0.1 (3bc2e813f5, 2020-09-07)" sodipodi:docname="Divmod.svg" inkscape:output_extension="org.inkscape.output.svg.inkscape">
	<sodipodi:namedview pagecolor="#ffffff" bordercolor="#666666" borderopacity="1.0" gridtolerance="10000" guidetolerance="10" objecttolerance="10" inkscape:pageopacity="0.0" inkscape:pageshadow="2" inkscape:zoom="1.4" inkscape:cx="96.037588" inkscape:cy="266.43687" inkscape:document-units="px" inkscape:current-layer="layer1" showgrid="true" inkscape:window-width="1920" inkscape:window-height="1001" inkscape:window-x="-9" inkscape:window-y="-9" inkscape:document-rotation="0" inkscape:window-maximized="1">
		<inkscape:grid visible="true" enabled="true"/>
	</sodipodi:namedview>
	<metadata>
		<rdf:RDF>
			<cc:Work rdf:about="">
				<dc:format>image/svg+xml</dc:format>
				<dc:type rdf:resource="http://purl.org/dc/dcmitype/StillImage"/>
			</cc:Work>
		</rdf:RDF>
	</metadata>
	<g fill="none" inkscape:label="Layer 1" inkscape:groupmode="layer">
		<g stroke="#0f0" stroke-width="2" stroke-linecap="square">
			<path d="m1 340.021482 30-30v30l30-30v30l30-30v30l30-30v30l30-30v30l30-30"/>
			<path d="m1 150.021482 30-30v30l30-30v30l30-30 30-30v30l30-30v29.30l30-30"/>
			<path d="m221 150.021482 30-30v30l30-30v30l30-30 30-30v30l30-30v30l30-30"/>
			<path d="m221 370.021482 30-30v30l30-30v30l30-30v30l30-30v30l30-30v30l30-30"/>
			<path d="m1 570.021482 30-30v30l30-30v30l30-30v30l30-30v30l30-30v30l30-30"/>
			<path d="m221 570.021482 30-30v30l30-30v30l30-30v30l30-30v30l30-30v30l30-30"/>
		</g>
		<g stroke="#000" stroke-width=".5">
			<path d="m1 120.021482h180"/>
			<path d="m91 210.021482v-180" sodipodi:nodetypes="cc"/>
			<path d="m311 210.021482v-180" sodipodi:nodetypes="cc"/>
			<path d="m91 430.021482v-180" sodipodi:nodetypes="cc"/>
			<path d="m311 430.021482v-180" sodipodi:nodetypes="cc"/>
			<path d="m91 660.021482v-180" sodipodi:nodetypes="cc"/>
			<path d="m311 660.021482v-180" sodipodi:nodetypes="cc"/>
			<path d="m221 120.021482h180"/>
			<path d="m1 340.021482h180"/>
			<path d="m221 340.021482h180"/>
			<path d="m1 570.021482h180"/>
			<path d="m221 570.021482h180"/>
		</g>
		<g stroke="#f00" stroke-width="2">
			<path d="m1 180.021482h30v-30h30v-30h30 30v-30h30v-30h30"/>
			<path d="m221 60.021492h30v30h30v30h30 30v30h30v30h30"/>
			<path d="m1 660.021482h30v-30h30v-30h30v-30h30v-30h30v-30h30"/>
			<path d="m221 280.021482h30v30h30v30h30v30h30v30h30v30h30"/>
			<path d="m1 430.021482h30v-30h30v-30h30v-30h30v-30h30v-30h30"/>
			<path d="m221 480.021482h30v30h30v30h30v30h30v30h30v30h30"/>
		</g>
		<g fill="black" font-family="Arial,sans-serif" text-anchor="middle">
			<switch><text font-size="18" x="201" y="230" id="trsvg6-zh" systemLanguage="zh"><tspan sodipodi:role="line" id="trsvg1-zh">向零取整除法</tspan></text><text font-size="18" x="201" y="230" id="trsvg6"><tspan sodipodi:role="line" id="trsvg1">Truncated Division</tspan></text></switch>
			<switch><text font-size="18" x="201" y="440" id="trsvg7-zh" systemLanguage="zh"><tspan sodipodi:role="line" id="trsvg2-zh">向下取整除法</tspan></text><text font-size="18" x="201" y="440" id="trsvg7"><tspan sodipodi:role="line" id="trsvg2">Floored Division</tspan></text></switch>
			<switch><text font-size="18" x="201" y="670" id="trsvg8-zh" systemLanguage="zh"><tspan sodipodi:role="line" id="trsvg3-zh">欧几里得除法</tspan></text><text font-size="18" x="201" y="670" id="trsvg8"><tspan sodipodi:role="line" id="trsvg3">Euclidean Division</tspan></text></switch>
			<switch><text font-size="14" x="91" y="15" id="trsvg9-zh" systemLanguage="zh"><tspan sodipodi:role="line" id="trsvg4-zh">正除数</tspan></text><text font-size="14" x="91" y="15" id="trsvg9"><tspan sodipodi:role="line" id="trsvg4">Positive Divisor</tspan></text></switch>
			<switch><text font-size="14" x="311" y="15" id="trsvg10-zh" systemLanguage="zh"><tspan sodipodi:role="line" id="trsvg5-zh">负除数</tspan></text><text font-size="14" x="311" y="15" id="trsvg10"><tspan sodipodi:role="line" id="trsvg5">Negative Divisor</tspan></text></switch>
		</g>
	</g>
</svg>
